<?xml version="1.0" encoding="utf-8"?>
<!-- Generator: Adobe Illustrator 23.0.3, SVG Export Plug-In . SVG Version: 6.00 Build 0)  -->
<svg version="1.1" id="Layer_1" xmlns="http://www.w3.org/2000/svg" xmlns:xlink="http://www.w3.org/1999/xlink" x="0px" y="0px"
	 viewBox="0 0 300 637" style="enable-background:new 0 0 300 637;" xml:space="preserve">
<style type="text/css">
	.st0{clip-path:url(#SVGID_2_);fill:#FFFFFF;}
	.st1{clip-path:url(#SVGID_2_);}
	.st2{fill:#EEF2FA;}
	.st3{fill:none;stroke:#EEF2FA;stroke-width:4.3663;stroke-miterlimit:10;}
	.st4{fill:#142148;}
	.st5{fill:#F9B385;}
	.st6{fill:#E38B6D;}
	.st7{fill:#ED6F58;}
	.st8{fill:#243F87;}
	.st9{fill:#FFFFFF;}
	.st10{fill:#748BC6;}
	.st11{opacity:0.4;fill:#243F87;}
	.st12{opacity:0.4;fill:#F5887A;}
	.st13{opacity:0.2;fill:#243F87;}
	.st14{fill:#FFFFFF;stroke:#748BC6;stroke-width:4.166;stroke-miterlimit:10;}
	.st15{fill:#F9C243;}
	.st16{opacity:0.8;fill:#FFFFFF;}
	.st17{fill:none;stroke:#142148;stroke-width:6.2489;stroke-miterlimit:10;}
</style>
<g>
	<defs>
		<rect id="SVGID_1_" x="-277.78" y="21" width="833.91" height="555.94"/>
	</defs>
	<clipPath id="SVGID_2_">
		<use xlink:href="#SVGID_1_"  style="overflow:visible;"/>
	</clipPath>
	<rect x="-277.78" y="21" class="st0" width="833.91" height="555.94"/>
	<g class="st1">
		<path class="st2" d="M111.36,320.08c-40.24-14.25-79.52-35.96-97.32-74.88c-17.57-38.41-8.82-87.31,20.99-117.24
			c10.37-10.41,23.44-18.78,38-20.74c20.57-2.77,40.68,7.45,57.4,19.73c16.72,12.29,31.92,27.08,50.73,35.84
			c21.35,9.93,45.61,11.26,68.18,17.99c13.77,4.11,27.39,10.6,36.45,21.76c9,11.08,12.59,25.76,12.76,40.03
			c0.49,40.93-27.65,80.39-66.21,94.11c-25.27,8.99-51.75,3.29-76.8-3.31C141.37,329.63,126.3,325.37,111.36,320.08z"/>
		<path class="st3" d="M194.96,319.61c-37.28,23.94-79.86,42.53-122.22,33.18c-41.82-9.23-74.97-46.23-79.48-88.71
			c-1.57-14.78,0.23-30.5,8.07-43.51c11.07-18.38,32.16-28.45,52.7-34.51c20.54-6.06,42.09-9.34,61.18-19.25
			c21.66-11.25,38.37-30.13,58.27-44.32c12.14-8.66,26.09-15.74,40.79-16.27c14.6-0.52,28.57,5.53,40,14.12
			c32.79,24.63,45.95,71.58,31.94,111.26c-9.18,26-30.79,44-52.2,60.29C221.91,301.1,208.8,310.73,194.96,319.61z"/>
	</g>
	<g class="st1">
		<g>
			<g>
				<path class="st4" d="M67.05,252.58c0,0-4.14-10.55,12.95-24.79l-0.26,23.56L67.05,252.58z"/>
				<g>
					<path class="st5" d="M66.48,203.55c-6.09-12.41-11.05-21.33-14.18-19.92c-0.83,0.37-1.22,1.44-0.98,2.38
						c1.65,6.47,8.34,18.52,8.34,18.52L66.48,203.55z"/>
					<path class="st5" d="M74.25,221.3l-10.69,6.91c-4.69-2.12-8.78-6.39-11.61-14.31c-0.39-1.11-0.3-2.37,0.29-3.36l2.24-3.83
						c0.8-1.35,1.18-2.93,1.1-4.54l-0.21-4.62c-0.02-0.34,0.1-0.66,0.33-0.89l1.65-1.7c0.3-0.31,0.75-0.33,1.08-0.07l3.45,2.82
						l-0.67-0.05c0,0,0.57,5.98,5.01,6.28l2.31,2.96L74.25,221.3z"/>
					<path class="st5" d="M75.7,220.37l-1.45,0.93l-5.73-14.41l-2.31-2.96c-4.44-0.29-5.01-6.28-5.01-6.28l0.67,0.05l5.23,0.31
						c1.45,0.08,2.82,0.73,3.87,1.81l3.55,3.68c0.68,0.71,1.19,1.6,1.47,2.57C77.39,210.87,77.13,215.63,75.7,220.37z"/>
					<path class="st5" d="M82.07,222.61l-2.41,22.89c0,0-6.91,5.47-7.25,6.04c-0.16,0.25-2.53-5.37-5.14-11.76
						c-3.37-8.21-7.13-17.7-7.13-17.7l15.02-8.49l5.27,6.88L82.07,222.61z"/>
					<path class="st6" d="M82.07,222.61l-2.41,22.89c0,0-6.91,5.47-7.25,6.04c-0.16,0.25-2.53-5.37-5.14-11.76l13.16-19.32
						L82.07,222.61z"/>
					<g>
						<path class="st6" d="M68.73,207.68c-0.34-0.39-1.86-2.42-2.34-3.07c-5.28-0.4-5.71-6.85-5.71-6.92l-0.03-0.53l0.53-0.01
							c8.56-0.19,10.38,2.09,11.46,3.46c0.19,0.24,0.35,0.44,0.51,0.59l-0.69,0.77c-0.23-0.21-0.43-0.45-0.63-0.72
							c-1-1.27-2.51-3.16-10.06-3.08c0.21,1.45,1.12,5.27,4.91,5.42l0.25,0.01l0.15,0.2c0.71,0.96,2.14,2.86,2.44,3.21L68.73,207.68
							z"/>
					</g>
					<g>
						<path class="st6" d="M65.38,209.37c-0.54,0-1.01-0.22-1.31-0.46c-0.71-0.58-5.56-4.39-5.56-4.39l0.64-0.81
							c0,0,4.86,3.82,5.57,4.41c0.17,0.14,0.57,0.33,0.99,0.17c0.62-0.24,1.07-1.15,1.28-2.56l1.03,0.15
							c-0.33,2.3-1.23,3.1-1.93,3.37C65.84,209.33,65.61,209.37,65.38,209.37z"/>
					</g>
					<g>
						<path class="st6" d="M60.75,197.93c-0.46-0.45-4.2-0.99-4.92-0.78l-0.28-1c0.91-0.26,5.48,0.22,6.09,1.24L60.75,197.93z"/>
					</g>
					<g>
						<path class="st6" d="M65.14,215.01c-1.51,0-3.38-1.23-3.64-1.41l-4.35-2.86l0.57-0.87l4.36,2.86
							c1.11,0.75,3.03,1.61,3.63,1.07c0.21-0.19,0.32-0.5,0.31-0.93c-0.02-1.28-1.05-3.15-1.88-3.84l0.66-0.8
							c1.04,0.86,2.23,3.02,2.26,4.62c0.01,0.73-0.21,1.33-0.65,1.72C66.05,214.89,65.61,215.01,65.14,215.01z"/>
					</g>
					<g>
						<path class="st6" d="M61.96,218.52c-1.29,0-2.84-1-3.23-1.25l-3.83-2.51l0.57-0.87l3.83,2.52c0.96,0.65,2.61,1.4,3.11,0.95
							c0.17-0.16,0.26-0.41,0.25-0.77c-0.02-1.17-0.99-2.8-1.63-3.33l0.66-0.8c0.92,0.77,1.98,2.69,2.01,4.11
							c0.01,0.66-0.19,1.2-0.59,1.56C62.79,218.41,62.39,218.52,61.96,218.52z"/>
					</g>
				</g>
				<g>
					<path class="st7" d="M115.14,508.31l-1.12,5.1c-8.77,0.61-19.69,6.64-25.04,14.2h41.89l1.45-21.68
						C126.77,507.27,120.11,508.48,115.14,508.31z"/>
					<path class="st5" d="M132.31,505.92l0.83-12.44l-14.13-2.7l-3.87,17.53C120.11,508.48,126.77,507.27,132.31,505.92z"/>
				</g>
				<g>
					<path class="st5" d="M200.13,504.91l-5.17-17.99l-14.16,1.89l3.43,17.11C189.71,506.11,195.05,505.77,200.13,504.91z"/>
					<path class="st7" d="M225.4,518.92c-6.97-9.35-15.41-9.62-24.18-10.23l-1.09-3.79c-5.08,0.86-10.42,1.2-15.9,1.01l4.33,21.6
						L225.4,518.92z"/>
				</g>
				<path class="st8" d="M155.68,281.18l-1.81,50.42c-0.04,1.36-0.08,2.72-0.13,4.07c-0.93,27.69-2.73,54.27-5.23,79.97
					c-2.83,29.1-6.54,57.07-10.9,84.21H109c-3.81-60.5-10.23-133.12,1.55-198.83l7.18-17.57L155.68,281.18z"/>
				<path class="st8" d="M195.03,303.84c7.18,60.05,13.39,127.27,10.63,189.96l-31.07,6.04c-8.49-52.28-23.31-119.53-25.2-180.14
					l-4.14-49.28l46.59,13.03L195.03,303.84z"/>
				<rect x="138.47" y="157.66" class="st5" width="20.76" height="25.73"/>
				<path class="st9" d="M138.34,173.51c7.6,10.53,17.26,5.92,20.88-1.16l24.69,109.68c-23.04,9.92-45.19,11.39-65.94-0.38
					l13.12-103.86L138.34,173.51z"/>
				<path class="st4" d="M170.68,141.76c4.6-9.08,5.63-23.11-5.07-23.69c-9.28-9.15-24.28-7.9-33,1.65
					c-16.86-5.19-19.35,25.71,2.11,24.53L170.68,141.76z"/>
				<path class="st4" d="M138.47,157.66v13.68c6.13,0.13,11.28-2.14,14.42-6.07c0,0-6.05-4.23-10.82-7.61H138.47z"/>
				<path class="st5" d="M167.86,132.7l-1.65,15.89c-2.52,7.04-5.62,12-9.53,15.15c-4.03,3.24-9.25,4.27-14.05,2.82
					c-4.12-1.25-7.49-4.31-8.87-8.44c-0.76-2.28-0.91-4.88-0.25-7.69c0.1-0.45,0.19-0.89,0.23-1.35c0.22-1.82,0.02-3.68-0.44-5.46
					c-0.96-3.73-1.01-7.61-0.34-11.63l18.62-5.89L167.86,132.7z"/>
				<path class="st10" d="M131.43,323.85c-9.64,2.11-20.94,1.92-33.49,0c3.08-28.06,7.31-54.99,13.81-79.68l-27.1-2.65
					c0.25-4.37,0.83-8.87,1.72-13.48c1.01-5.19,2.44-10.54,4.28-15.98c0.06-0.19,0.13-0.39,0.21-0.58
					c6.54-18.93,18.42-33.2,47.64-38.06C147.66,217.03,146.97,281.55,131.43,323.85z"/>
				<path class="st10" d="M201.26,287.53c1.65,9.83,3.1,19.67,4.58,29.91c-9.36,3.34-20.68,4.55-33.66,3.97
					c-5.43-17.46-9.1-35.65-11.23-54.47c0-0.07-0.01-0.13-0.02-0.21c-3.35-29.92-5.51-61.49-1.7-94.35
					c11.95,0.85,24.21,4.52,35.68,11.87c3.94,2.53,7.13,6.25,9.26,10.65c8.03,16.52,11.77,31.05,14.87,46.06l-25.12,10.2
					c0.74,3.07,1.43,6.1,2.09,9.09C198.06,269.52,199.75,278.51,201.26,287.53z"/>
				<path class="st10" d="M117.54,233.6l-3.36,27.37l-1.57,2.08l-7.69,10.18c-3.13,4.14-7.43,6.2-11.75,6.24
					c-4.66,0.04-9.32-2.28-12.5-6.94l-13.62-19.94c6.7-8.96,13.16-18.06,15.01-29.98c8.79,10.24,11.4,14.1,11.4,14.1L117.54,233.6z"
					/>
				<path class="st4" d="M132.49,138.58c6.9-0.34,13.81-1.81,20.75-5.42c2.19,4.19,7.37,9.71,14.97,7.64l0.83-4.57l0.59-7.78
					l-22.87-7.31l-17.92,5.89L132.49,138.58z"/>
				<path class="st11" d="M201.26,287.53c-14.6-1.42-28.45-8.15-40.31-20.59c-0.05-0.06-0.11-0.11-0.17-0.18l0.15-0.03l35.09-6.47
					C198.06,269.52,199.75,278.51,201.26,287.53z"/>
				<path class="st4" d="M150.41,336.73c4.45,27.11,0.58,53.21-1.92,78.9C127.64,383.15,147.65,343.64,150.41,336.73z"/>
				<g>
					
						<rect x="89.06" y="220.01" transform="matrix(0.7873 -0.6166 0.6166 0.7873 -124.1114 104.6209)" class="st8" width="1.04" height="24.36"/>
				</g>
				<path class="st11" d="M189.44,210.88l5.18,29.69c0,0-9.23,6.12-12.07,1.11C180.33,237.76,183.23,224.99,189.44,210.88z"/>
				<path class="st5" d="M136.26,231.97l-6.28,0.44c-0.68,0.05-1.27,0.56-1.46,1.28l-0.04,0.16c-0.3,1.13-0.09,2.34,0.58,3.27
					l1.13,1.57c0.18,0.25,0.14,0.6-0.09,0.8l0,0c-1,0.49-1.72,1.46-1.76,2.57c-0.01,0.28,0.01,0.55,0.06,0.8l0,0
					c0.23,1.07,0.98,1.91,1.95,2.19l0.61,0.18c0.08,0.02,0.12,0.12,0.07,0.2l-0.88,1.48c-0.66,1.15,0.3,3.31,1.24,4.08
					c0.19,0.32,0.8,0.44,1.15,0.48l2.77,0.38c1.29,0.18,2.51,0.63,3.63,1.29c5.59,3.28,12.42,2.94,19.25,2.61l-0.53-17.95
					c-4.66-3.58-10.01-6.62-16.2-8.99l-14.74-10.49C123.49,219.72,125.52,223.72,136.26,231.97z"/>
				<path class="st10" d="M219.04,240.96l2.18,9.17c2.83,11.91-6.1,23.23-17.28,21.93l-53.17-6.46l4.06-30.31L219.04,240.96z"/>
				
					<rect x="77.02" y="241.32" transform="matrix(0.1174 -0.9931 0.9931 0.1174 -144.2872 321.32)" class="st8" width="63.22" height="1.04"/>
				
					<rect x="174.25" y="216.97" transform="matrix(0.0843 -0.9964 0.9964 0.0843 -76.1119 391.1388)" class="st8" width="1.04" height="40.02"/>
				<g>
					<path class="st6" d="M138.81,240.31c-0.31-0.03-7.48-0.79-8.76-1.14l0.28-1c0.99,0.28,6.54,0.9,8.59,1.11L138.81,240.31z"/>
				</g>
				<g>
					<path class="st6" d="M139.76,247.13c-0.31-0.03-7.7-0.78-8.98-1.14l0.28-1c0.99,0.28,6.69,0.89,8.8,1.11L139.76,247.13z"/>
				</g>
				<path class="st5" d="M163.14,152.49c13.01,1.94,14.73-18.77,0.92-10.48L163.14,152.49z"/>
				<path class="st6" d="M166.15,146.83c-0.16-0.67-0.2-1.38-0.05-2.09c0.14-0.71,0.49-1.4,1.04-1.94c0.54-0.53,1.3-0.92,2.12-0.86
					c0.81,0.04,1.55,0.54,1.86,1.2l-0.33,0.24c-0.47-0.41-1.01-0.59-1.53-0.54c-0.52,0.04-1.01,0.32-1.4,0.69
					c-0.4,0.38-0.69,0.89-0.91,1.44c-0.21,0.56-0.3,1.18-0.39,1.82L166.15,146.83z"/>
				<path class="st4" d="M140.89,144.05c0,1.33-0.75,2.42-1.68,2.42s-1.68-1.08-1.68-2.42c0-1.33,0.75-2.42,1.68-2.42
					S140.89,142.72,140.89,144.05z"/>
				<path class="st4" d="M153.57,142.76c0,1.33-0.75,2.42-1.68,2.42s-1.68-1.08-1.68-2.42c0-1.33,0.75-2.42,1.68-2.42
					S153.57,141.42,153.57,142.76z"/>
				<path class="st4" d="M146.2,142.01c-0.12,1.23-0.56,2.41-1.09,3.5c-0.49,1.1-1.23,2.14-1.71,3.09c-0.5,0.99-0.63,1.92-0.01,2.72
					c0.61,0.82,1.61,1.48,2.57,2.18l-0.24,0.43c-1.1-0.44-2.27-0.9-3.19-1.92c-0.46-0.5-0.78-1.25-0.77-1.99
					c0.01-0.74,0.24-1.39,0.53-1.97c0.61-1.15,1.3-2.02,1.89-3.05c0.6-1,1.16-2,1.55-3.09L146.2,142.01z"/>
				<path class="st9" d="M142.4,157.5l9.12-2.6c0,0-0.03,4.11-4.4,5.11C144.63,160.59,142.4,157.5,142.4,157.5z"/>
				<path class="st12" d="M137.87,153.6c0,2.36-1.8,4.31-4.11,4.52c-0.76-2.28-0.91-4.88-0.25-7.69c0.1-0.45,0.19-0.89,0.23-1.35
					C136.06,149.29,137.87,151.23,137.87,153.6z"/>
				
					<ellipse transform="matrix(0.1602 -0.9871 0.9871 0.1602 -16.1734 281.7305)" class="st12" cx="157.48" cy="150.37" rx="4.53" ry="4.53"/>
				<path class="st11" d="M106.11,265.73l-1.2,7.5c-3.13,4.14-7.43,6.2-11.75,6.24c4.26-17.38,14.36-29.92,14.36-29.92
					L106.11,265.73z"/>
				<path class="st13" d="M96.95,241.61l-10.57-13.57c1.01-5.19,2.44-10.54,4.28-15.98c0.06-0.19,0.13-0.39,0.21-0.58
					C92.88,215.21,97.55,225.72,96.95,241.61z"/>
			</g>
			<path class="st14" d="M91.72,149.74c-4.95-1.98-9.16-5.04-12.55-9.28c3.94-5.93,6.24-13.05,6.24-20.71
				c0-20.84-17.46-37.92-38.29-37.49c-21.15,0.44-37.99,18.38-36.63,39.92c1.18,18.73,16.42,33.9,35.15,35
				c9.23,0.54,17.78-2.25,24.58-7.29c5.9,2.52,12.88,3.08,21.44,0.82C92.13,150.59,92.17,149.92,91.72,149.74z"/>
			<g>
				<path class="st15" d="M59.58,119.34c0-7.1-6.15-12.76-13.41-11.95c-5.44,0.61-9.86,4.98-10.54,10.41
					c-0.46,3.7,0.77,7.11,3.01,9.58c1.77,1.95,2.68,4.53,2.68,7.16v0.01c0,3.45,2.79,6.24,6.24,6.24l0,0c3.45,0,6.24-2.79,6.24-6.24
					v-0.01c0-2.74,1.09-5.31,2.88-7.39C58.49,125.06,59.58,122.33,59.58,119.34z"/>
				<g>
					<path class="st4" d="M47.56,142.84c2.19,0,4-1.63,4.29-3.75h-8.57C43.56,141.2,45.36,142.84,47.56,142.84z"/>
				</g>
				<path class="st16" d="M44.02,117.51c-0.78,2.18-2.27,3.64-3.33,3.26c-1.06-0.38-1.29-2.45-0.51-4.63
					c0.78-2.18,2.27-3.64,3.33-3.26C44.57,113.26,44.8,115.33,44.02,117.51z"/>
				<g>
					<path class="st15" d="M47.79,103.3L47.79,103.3c-0.67,0-1.22-0.55-1.22-1.22v-6.45c0-0.67,0.55-1.22,1.22-1.22h0
						c0.67,0,1.22,0.55,1.22,1.22v6.45C49,102.75,48.45,103.3,47.79,103.3z"/>
					<path class="st15" d="M38.51,105.37L38.51,105.37c-0.55,0.38-1.32,0.23-1.69-0.33l-3.11-4.59c-0.38-0.55-0.23-1.32,0.33-1.69
						l0,0c0.55-0.38,1.32-0.23,1.69,0.33l3.11,4.59C39.22,104.23,39.07,104.99,38.51,105.37z"/>
					<path class="st15" d="M56.72,105.19L56.72,105.19c0.55,0.38,1.32,0.23,1.69-0.33l2.99-4.42c0.38-0.55,0.23-1.32-0.33-1.69l0,0
						c-0.55-0.38-1.32-0.23-1.69,0.33l-2.99,4.42C56.02,104.06,56.16,104.82,56.72,105.19z"/>
				</g>
			</g>
		</g>
		<line class="st17" x1="20.65" y1="527.02" x2="283.8" y2="527.02"/>
	</g>
</g>
</svg>
