<?xml version="1.0" encoding="utf-8"?>
<!-- Generator: Adobe Illustrator 23.0.3, SVG Export Plug-In . SVG Version: 6.00 Build 0)  -->
<svg version="1.1" xmlns="http://www.w3.org/2000/svg" xmlns:xlink="http://www.w3.org/1999/xlink" x="0px" y="0px"
	 viewBox="0 0 800 800" style="enable-background:new 0 0 800 800;" xml:space="preserve">
<style type="text/css">
	.st0{fill:#6A9AA5;}
	.st1{opacity:0.4;fill:#6A9AA5;}
	.st2{fill:#FFFFFF;}
	.st3{fill:#433E72;}
	.st4{opacity:0.3;fill:#433E72;}
	.st5{fill:#26013F;}
	.st6{fill:none;stroke:#6A9AA5;stroke-width:1.0363;stroke-miterlimit:10;}
</style>
<g id="background">
	<rect class="st0" width="800" height="800"/>
</g>
<g id="objects">
	<g>
	</g>
	<g>
		<path class="st1" d="M495.16,594.8c0,10.37-39.02,18.78-87.15,18.78c-48.13,0-87.15-8.41-87.15-18.78
			c0-10.37,39.02-18.77,87.15-18.77C456.15,576.02,495.16,584.43,495.16,594.8z"/>
		<g>
			<g>
				<path class="st2" d="M216.51,331.21l4.41,42.78l332.7-34.29l-4.41-42.78c-0.93-9.04-9.02-15.62-18.06-14.68L231.2,313.16
					C222.16,314.09,215.58,322.17,216.51,331.21z"/>
				<path class="st2" d="M219.71,362.27l13.34,129.48c0.95,9.25,9.23,15.98,18.48,15.03l299.19-30.84
					c9.25-0.95,15.98-9.23,15.03-18.48l-13.34-129.48L219.71,362.27z"/>
				
					<rect x="224.87" y="344.81" transform="matrix(0.9947 -0.1025 0.1025 0.9947 -39.319 42.3267)" class="st3" width="334.47" height="117.7"/>
				<polygon class="st4" points="497.96,389.17 506.51,480.5 336.03,498.07 325.55,406.94 				"/>
				<path class="st5" d="M238.77,312.54l22.72-2.34c1.08-0.11,1.86-1.08,1.75-2.15l-0.5-4.88c-0.11-1.08-1.08-1.86-2.15-1.75
					l-22.72,2.34c-1.08,0.11-1.86,1.08-1.75,2.15l0.5,4.88C236.73,311.86,237.69,312.65,238.77,312.54z"/>
				<polygon class="st2" points="463.88,294.68 449.55,251.47 344.98,262.24 339.76,307.47 				"/>
				<polygon class="st4" points="447.11,290.58 437.89,271.98 360.57,279.95 355.34,300.04 				"/>
				
					<rect x="338.29" y="305.56" transform="matrix(0.9947 -0.1025 0.1025 0.9947 -31.0914 43.1446)" class="st4" width="131.76" height="36.94"/>
				<path class="st5" d="M516.52,270.62l-36.29,3.74c-1.73,0.18-2.99,1.72-2.81,3.45l1.01,9.78l42.55-4.39l-1.01-9.78
					C519.79,271.7,518.25,270.44,516.52,270.62z"/>
				<path class="st5" d="M322.86,303.02l-47.73,4.92c-0.39,0.04-0.73-0.24-0.77-0.63l-1.05-10.2c-0.04-0.39,0.24-0.73,0.63-0.77
					l47.73-4.92c0.39-0.04,0.73,0.24,0.77,0.63l1.05,10.2C323.53,302.64,323.25,302.98,322.86,303.02z"/>
				<path class="st4" d="M312.56,329.98c-0.69-6.73-6.72-11.63-13.45-10.94c-6.73,0.69-11.63,6.71-10.94,13.45
					c0.69,6.73,6.71,11.63,13.45,10.94C308.36,342.74,313.26,336.72,312.56,329.98z"/>
				<path class="st3" d="M306.52,330.61c-0.35-3.39-3.39-5.86-6.78-5.51c-3.39,0.35-5.86,3.38-5.51,6.78
					c0.35,3.39,3.38,5.86,6.78,5.51C304.4,337.03,306.87,334,306.52,330.61z"/>
				<path class="st5" d="M484.14,327.92L451.95,349l14.64,22.35l32.18-21.08c6.17-4.04,7.9-12.32,3.86-18.49l0,0
					C498.59,325.61,490.31,323.88,484.14,327.92z"/>
				<path class="st0" d="M497.19,335.67c-2.47-3.76-7.51-4.82-11.28-2.35c-3.76,2.46-4.82,7.51-2.35,11.28
					c2.46,3.76,7.51,4.82,11.28,2.35C498.6,344.48,499.65,339.43,497.19,335.67z"/>
				<path class="st0" d="M493.4,338.14c-1.1-1.67-3.34-2.14-5.01-1.04c-1.67,1.1-2.14,3.34-1.04,5.01c1.1,1.67,3.34,2.14,5.01,1.04
					C494.03,342.06,494.5,339.82,493.4,338.14z"/>
				
					<ellipse transform="matrix(0.7071 -0.7071 0.7071 0.7071 -160.8661 407.7413)" class="st5" cx="411.75" cy="398.05" rx="86.66" ry="86.66"/>
				<circle class="st6" cx="411.75" cy="398.05" r="73.21"/>
				<g>
					<path class="st0" d="M411.82,350.26c11.75,0,23.06,4.34,31.85,12.23c8.85,7.94,14.4,18.83,15.62,30.67
						c2.7,26.21-16.43,49.74-42.64,52.44c-1.65,0.17-3.32,0.26-4.97,0.26c-11.75,0-23.06-4.34-31.85-12.23
						c-8.85-7.94-14.4-18.83-15.62-30.67c-1.31-12.7,2.41-25.15,10.46-35.05c8.05-9.9,19.48-16.08,32.18-17.39
						C408.5,350.34,410.18,350.26,411.82,350.26 M411.82,340.93c-1.96,0-3.93,0.1-5.93,0.31c-31.38,3.23-54.19,31.29-50.96,62.67
						c3.03,29.39,27.84,51.27,56.75,51.27c1.96,0,3.93-0.1,5.93-0.31c31.38-3.23,54.19-31.29,50.96-62.67
						C465.54,362.81,440.73,340.93,411.82,340.93L411.82,340.93z"/>
				</g>
				<path class="st0" d="M409.19,373.21c-13.72,1.41-23.7,13.68-22.28,27.4s13.68,23.7,27.4,22.28c13.72-1.41,23.7-13.68,22.28-27.4
					C435.18,381.77,422.91,371.8,409.19,373.21z"/>
				<path class="st0" d="M410.26,383.59c-7.99,0.82-13.8,7.97-12.98,15.96c0.82,7.99,7.97,13.8,15.96,12.98
					c7.99-0.82,13.8-7.97,12.98-15.96C425.4,388.57,418.25,382.76,410.26,383.59z"/>
				<path class="st2" d="M416.92,367.46c-7.18,0.74-12.41,7.16-11.67,14.35s7.16,12.41,14.35,11.67
					c7.18-0.74,12.41-7.16,11.67-14.35S424.1,366.72,416.92,367.46z"/>
				<path class="st3" d="M530.63,298.22l-45.73,4.71c-1.02,0.1-1.76,1.01-1.65,2.03l1.37,13.3c0.1,1.02,1.01,1.76,2.03,1.65
					l45.73-4.71c1.02-0.1,1.76-1.01,1.65-2.03l-1.37-13.3C532.55,298.85,531.65,298.12,530.63,298.22z"/>
			</g>
			<g>
				<path class="st5" d="M337.44,243.94c-0.15,0.14-0.3,0.27-0.48,0.39c-1.62,1.11-3.83,0.69-4.94-0.93l-13.92-20.34
					c-1.11-1.62-0.7-3.83,0.93-4.94c1.62-1.11,3.83-0.69,4.94,0.93l13.92,20.33C338.88,240.84,338.65,242.75,337.44,243.94z"/>
			</g>
			<g>
				<g>
					<path class="st5" d="M321.72,254.7c-1.11,1.08-2.85,1.35-4.26,0.53l-22.17-12.79c-1.7-0.98-2.28-3.16-1.3-4.85
						c0.99-1.71,3.16-2.28,4.85-1.3l22.17,12.79c1.7,0.98,2.28,3.15,1.3,4.85C322.15,254.22,321.94,254.48,321.72,254.7z"/>
				</g>
				<g>
					<path class="st5" d="M353.16,233.18c-0.51,0.5-1.18,0.85-1.94,0.97c-1.94,0.3-3.75-1.03-4.05-2.97l-3.9-25.3
						c-0.3-1.94,1.03-3.75,2.97-4.05c1.94-0.3,3.75,1.03,4.05,2.97l3.9,25.3C354.37,231.28,353.95,232.41,353.16,233.18z"/>
				</g>
			</g>
		</g>
	</g>
</g>
</svg>
